<svg xmlns="http://www.w3.org/2000/svg" width="32" viewBox="0 0 32 32" height="32"><path d="M16 .05C7.212.05.05 7.21.05 16a1.284 1.284 0 0 0 1.283 1.284H4A1.284 1.284 0 0 0 5.284 16c0-5.933 4.783-10.716 10.716-10.716 5.933 0 10.716 4.783 10.716 10.716A1.284 1.284 0 0 0 28 17.284h2.667A1.284 1.284 0 0 0 31.95 16C31.95 7.212 24.79.05 16 .05zm0 5.333C10.148 5.383 5.383 10.148 5.383 16a1.284 1.284 0 0 0 1.284 1.284h2.666A1.284 1.284 0 0 0 10.617 16c0-2.985 2.398-5.383 5.383-5.383s5.383 2.398 5.383 5.383a1.284 1.284 0 0 0 1.284 1.284h2.666A1.284 1.284 0 0 0 26.617 16c0-5.852-4.765-10.617-10.617-10.617zm0 6c-2.535 0-4.617 2.082-4.617 4.617 0 1.52.857 2.74 2 3.583v3.34L9.21 27.09a1.284 1.284 0 0 0 0 1.82l1.88 1.88a1.284 1.284 0 0 0 1.82 0L16 27.697l3.09 3.09a1.284 1.284 0 0 0 1.82 0l1.88-1.88a1.284 1.284 0 0 0 0-1.817l-4.173-4.168v-3.34c1.14-.84 2-2.056 2-3.582 0-2.535-2.082-4.617-4.617-4.617z" fill="#fff"/><path d="M0 0h32v32H0z" fill="none"/><path d="M16 6.667c-5.16 0-9.333 4.173-9.333 9.333h2.666c0-3.68 2.987-6.667 6.667-6.667 3.68 0 6.667 2.987 6.667 6.667h2.666c0-5.16-4.173-9.333-9.333-9.333zm1.333 12.386c1.174-.52 2-1.68 2-3.053 0-1.84-1.493-3.333-3.333-3.333S12.667 14.16 12.667 16c0 1.36.826 2.533 2 3.053v4.4L10.12 28 12 29.88l4-4 4 4L21.88 28l-4.547-4.547v-4.4zM16 1.333C7.907 1.333 1.333 7.907 1.333 16H4C4 9.373 9.373 4 16 4s12 5.373 12 12h2.667c0-8.093-6.574-14.667-14.667-14.667z"/></svg>